<mxfile host="app.diagrams.net" modified="2021-07-31T18:00:25.582Z" agent="5.0 (Windows NT 10.0; Win64; x64) AppleWebKit/537.36 (KHTML, like Gecko) Chrome/92.0.4515.107 Safari/537.36" etag="VcY-1oap3XaJDhXwOlYS" version="14.9.3" type="github">
  <diagram id="C5RBs43oDa-KdzZeNtuy" name="Page-1">
    <mxGraphModel dx="1108" dy="793" grid="1" gridSize="10" guides="1" tooltips="1" connect="1" arrows="1" fold="1" page="1" pageScale="1" pageWidth="827" pageHeight="1169" math="0" shadow="0">
      <root>
        <mxCell id="WIyWlLk6GJQsqaUBKTNV-0" />
        <mxCell id="WIyWlLk6GJQsqaUBKTNV-1" parent="WIyWlLk6GJQsqaUBKTNV-0" />
        <mxCell id="cbIeKDAcqf2PVswtUej4-2" value="" style="edgeStyle=orthogonalEdgeStyle;rounded=0;orthogonalLoop=1;jettySize=auto;html=1;" edge="1" parent="WIyWlLk6GJQsqaUBKTNV-1" source="cbIeKDAcqf2PVswtUej4-0" target="cbIeKDAcqf2PVswtUej4-1">
          <mxGeometry relative="1" as="geometry" />
        </mxCell>
        <mxCell id="cbIeKDAcqf2PVswtUej4-0" value="Machine Learning" style="rounded=0;whiteSpace=wrap;html=1;" vertex="1" parent="WIyWlLk6GJQsqaUBKTNV-1">
          <mxGeometry x="140" y="330" width="120" height="60" as="geometry" />
        </mxCell>
        <mxCell id="cbIeKDAcqf2PVswtUej4-4" value="" style="edgeStyle=orthogonalEdgeStyle;rounded=0;orthogonalLoop=1;jettySize=auto;html=1;" edge="1" parent="WIyWlLk6GJQsqaUBKTNV-1" source="cbIeKDAcqf2PVswtUej4-1" target="cbIeKDAcqf2PVswtUej4-3">
          <mxGeometry relative="1" as="geometry" />
        </mxCell>
        <mxCell id="cbIeKDAcqf2PVswtUej4-17" value="" style="edgeStyle=orthogonalEdgeStyle;rounded=0;orthogonalLoop=1;jettySize=auto;html=1;" edge="1" parent="WIyWlLk6GJQsqaUBKTNV-1" source="cbIeKDAcqf2PVswtUej4-1" target="cbIeKDAcqf2PVswtUej4-16">
          <mxGeometry relative="1" as="geometry" />
        </mxCell>
        <mxCell id="cbIeKDAcqf2PVswtUej4-26" style="edgeStyle=orthogonalEdgeStyle;rounded=0;orthogonalLoop=1;jettySize=auto;html=1;exitX=0.5;exitY=0;exitDx=0;exitDy=0;" edge="1" parent="WIyWlLk6GJQsqaUBKTNV-1" source="cbIeKDAcqf2PVswtUej4-1" target="cbIeKDAcqf2PVswtUej4-24">
          <mxGeometry relative="1" as="geometry" />
        </mxCell>
        <mxCell id="cbIeKDAcqf2PVswtUej4-27" style="edgeStyle=orthogonalEdgeStyle;rounded=0;orthogonalLoop=1;jettySize=auto;html=1;exitX=0.75;exitY=0;exitDx=0;exitDy=0;entryX=0;entryY=0.5;entryDx=0;entryDy=0;" edge="1" parent="WIyWlLk6GJQsqaUBKTNV-1" source="cbIeKDAcqf2PVswtUej4-1" target="cbIeKDAcqf2PVswtUej4-19">
          <mxGeometry relative="1" as="geometry" />
        </mxCell>
        <mxCell id="cbIeKDAcqf2PVswtUej4-28" style="edgeStyle=orthogonalEdgeStyle;rounded=0;orthogonalLoop=1;jettySize=auto;html=1;exitX=0.75;exitY=1;exitDx=0;exitDy=0;entryX=0;entryY=0.5;entryDx=0;entryDy=0;" edge="1" parent="WIyWlLk6GJQsqaUBKTNV-1" source="cbIeKDAcqf2PVswtUej4-1" target="cbIeKDAcqf2PVswtUej4-20">
          <mxGeometry relative="1" as="geometry" />
        </mxCell>
        <mxCell id="cbIeKDAcqf2PVswtUej4-29" style="edgeStyle=orthogonalEdgeStyle;rounded=0;orthogonalLoop=1;jettySize=auto;html=1;exitX=0.25;exitY=1;exitDx=0;exitDy=0;entryX=1;entryY=0.5;entryDx=0;entryDy=0;" edge="1" parent="WIyWlLk6GJQsqaUBKTNV-1" source="cbIeKDAcqf2PVswtUej4-1" target="cbIeKDAcqf2PVswtUej4-25">
          <mxGeometry relative="1" as="geometry" />
        </mxCell>
        <mxCell id="cbIeKDAcqf2PVswtUej4-32" style="edgeStyle=orthogonalEdgeStyle;rounded=0;orthogonalLoop=1;jettySize=auto;html=1;exitX=0.25;exitY=0;exitDx=0;exitDy=0;entryX=1;entryY=0.5;entryDx=0;entryDy=0;" edge="1" parent="WIyWlLk6GJQsqaUBKTNV-1" source="cbIeKDAcqf2PVswtUej4-1" target="cbIeKDAcqf2PVswtUej4-18">
          <mxGeometry relative="1" as="geometry" />
        </mxCell>
        <mxCell id="cbIeKDAcqf2PVswtUej4-1" value="Supervised Algorithm" style="rounded=0;whiteSpace=wrap;html=1;" vertex="1" parent="WIyWlLk6GJQsqaUBKTNV-1">
          <mxGeometry x="340" y="330" width="120" height="60" as="geometry" />
        </mxCell>
        <mxCell id="cbIeKDAcqf2PVswtUej4-6" value="" style="edgeStyle=orthogonalEdgeStyle;rounded=0;orthogonalLoop=1;jettySize=auto;html=1;" edge="1" parent="WIyWlLk6GJQsqaUBKTNV-1" source="cbIeKDAcqf2PVswtUej4-3" target="cbIeKDAcqf2PVswtUej4-5">
          <mxGeometry relative="1" as="geometry" />
        </mxCell>
        <mxCell id="cbIeKDAcqf2PVswtUej4-13" style="edgeStyle=orthogonalEdgeStyle;rounded=0;orthogonalLoop=1;jettySize=auto;html=1;exitX=1;exitY=1;exitDx=0;exitDy=0;" edge="1" parent="WIyWlLk6GJQsqaUBKTNV-1" source="cbIeKDAcqf2PVswtUej4-3" target="cbIeKDAcqf2PVswtUej4-9">
          <mxGeometry relative="1" as="geometry" />
        </mxCell>
        <mxCell id="cbIeKDAcqf2PVswtUej4-14" style="edgeStyle=orthogonalEdgeStyle;rounded=0;orthogonalLoop=1;jettySize=auto;html=1;exitX=1;exitY=0;exitDx=0;exitDy=0;entryX=0;entryY=0.5;entryDx=0;entryDy=0;" edge="1" parent="WIyWlLk6GJQsqaUBKTNV-1" source="cbIeKDAcqf2PVswtUej4-3" target="cbIeKDAcqf2PVswtUej4-7">
          <mxGeometry relative="1" as="geometry" />
        </mxCell>
        <mxCell id="cbIeKDAcqf2PVswtUej4-3" value="Predictions" style="rounded=0;whiteSpace=wrap;html=1;" vertex="1" parent="WIyWlLk6GJQsqaUBKTNV-1">
          <mxGeometry x="540" y="330" width="120" height="60" as="geometry" />
        </mxCell>
        <mxCell id="cbIeKDAcqf2PVswtUej4-5" value="Trajectory" style="whiteSpace=wrap;html=1;rounded=0;" vertex="1" parent="WIyWlLk6GJQsqaUBKTNV-1">
          <mxGeometry x="740" y="350" width="70" height="20" as="geometry" />
        </mxCell>
        <mxCell id="cbIeKDAcqf2PVswtUej4-7" value="Launch" style="whiteSpace=wrap;html=1;rounded=0;" vertex="1" parent="WIyWlLk6GJQsqaUBKTNV-1">
          <mxGeometry x="740" y="300" width="70" height="20" as="geometry" />
        </mxCell>
        <mxCell id="cbIeKDAcqf2PVswtUej4-9" value="Success" style="whiteSpace=wrap;html=1;rounded=0;" vertex="1" parent="WIyWlLk6GJQsqaUBKTNV-1">
          <mxGeometry x="740" y="380" width="70" height="30" as="geometry" />
        </mxCell>
        <mxCell id="cbIeKDAcqf2PVswtUej4-16" value="Support Vector Machine" style="rounded=0;whiteSpace=wrap;html=1;" vertex="1" parent="WIyWlLk6GJQsqaUBKTNV-1">
          <mxGeometry x="368.75" y="475" width="62.5" height="40" as="geometry" />
        </mxCell>
        <mxCell id="cbIeKDAcqf2PVswtUej4-18" value="XGBoost" style="rounded=0;whiteSpace=wrap;html=1;" vertex="1" parent="WIyWlLk6GJQsqaUBKTNV-1">
          <mxGeometry x="277.5" y="280" width="62.5" height="20" as="geometry" />
        </mxCell>
        <mxCell id="cbIeKDAcqf2PVswtUej4-19" value="Random Forrest" style="rounded=0;whiteSpace=wrap;html=1;" vertex="1" parent="WIyWlLk6GJQsqaUBKTNV-1">
          <mxGeometry x="455" y="270" width="62.5" height="30" as="geometry" />
        </mxCell>
        <mxCell id="cbIeKDAcqf2PVswtUej4-20" value="Decision Trees" style="rounded=0;whiteSpace=wrap;html=1;" vertex="1" parent="WIyWlLk6GJQsqaUBKTNV-1">
          <mxGeometry x="450" y="420" width="72.5" height="30" as="geometry" />
        </mxCell>
        <mxCell id="cbIeKDAcqf2PVswtUej4-24" value="Neural Networks" style="rounded=0;whiteSpace=wrap;html=1;" vertex="1" parent="WIyWlLk6GJQsqaUBKTNV-1">
          <mxGeometry x="368.75" y="230" width="62.5" height="40" as="geometry" />
        </mxCell>
        <mxCell id="cbIeKDAcqf2PVswtUej4-25" value="Regression" style="rounded=0;whiteSpace=wrap;html=1;" vertex="1" parent="WIyWlLk6GJQsqaUBKTNV-1">
          <mxGeometry x="267.5" y="425" width="72.5" height="20" as="geometry" />
        </mxCell>
      </root>
    </mxGraphModel>
  </diagram>
</mxfile>
